<?xml version="1.0" standalone="no"?>
<!DOCTYPE svg PUBLIC "-//W3C//DTD SVG 20010904//EN"
 "http://www.w3.org/TR/2001/REC-SVG-20010904/DTD/svg10.dtd">
<svg version="1.0" xmlns="http://www.w3.org/2000/svg"
 width="1080.000000pt" height="1080.000000pt" viewBox="0 0 1080.000000 1080.000000"
 preserveAspectRatio="xMidYMid meet">
<metadata>
Created by potrace 1.16, written by Peter Selinger 2001-2019
</metadata>
<g transform="translate(0.000000,1080.000000) scale(0.100000,-0.100000)"
fill="#000000" stroke="none">
<path d="M5233 9010 c-59 -12 -115 -43 -151 -84 -17 -20 -34 -36 -37 -36 -3 0
-5 25 -5 55 l0 55 -41 0 -42 0 6 -92 c4 -51 11 -232 17 -403 6 -170 13 -320
16 -333 4 -20 10 -23 42 -20 l37 3 -4 168 -4 168 31 -29 c71 -66 187 -89 295
-58 72 21 146 87 178 158 35 78 34 202 -2 278 -14 30 -41 70 -60 89 -65 65
-183 100 -276 81z m176 -103 c146 -97 140 -339 -11 -419 -56 -29 -166 -31
-217 -4 -80 43 -120 117 -121 220 0 84 24 141 78 186 48 40 83 50 163 47 53
-2 75 -8 108 -30z"/>
<path d="M5885 8948 c-122 -44 -198 -161 -198 -308 -1 -124 57 -216 171 -272
60 -30 75 -33 157 -33 78 0 96 3 134 25 53 30 56 37 32 69 -17 22 -19 23 -42
8 -107 -70 -290 -20 -345 93 -26 53 -36 101 -25 119 6 10 60 3 257 -33 136
-25 250 -43 253 -40 3 3 6 40 6 82 0 180 -124 303 -303 301 -37 0 -80 -5 -97
-11z m180 -69 c50 -14 120 -84 134 -136 14 -50 14 -93 0 -93 -16 0 -413 73
-418 77 -2 1 4 21 14 44 44 97 152 140 270 108z"/>
<path d="M3803 8925 c-18 -8 -33 -16 -33 -19 0 -7 349 -778 354 -784 3 -2 21
1 41 8 27 9 35 16 30 29 -19 51 -351 781 -355 780 -3 0 -20 -6 -37 -14z"/>
<path d="M4410 8880 c-138 -51 -225 -190 -205 -329 9 -68 59 -165 107 -206
154 -131 400 -81 489 100 29 60 31 70 27 148 -7 135 -60 222 -171 279 -61 31
-174 35 -247 8z m175 -61 c57 -16 129 -93 149 -160 51 -171 -44 -309 -212
-309 -74 0 -107 11 -151 53 -98 93 -109 260 -23 350 62 66 150 90 237 66z"/>
<path d="M6433 8548 c-56 -150 -103 -279 -105 -287 -4 -18 71 -46 77 -28 25
74 116 310 128 333 20 38 65 80 100 93 36 14 108 14 142 1 24 -9 27 -7 41 25
7 19 14 36 14 39 0 3 -25 10 -55 16 -68 14 -124 6 -170 -25 l-35 -24 20 52
c22 56 19 64 -26 73 l-30 6 -101 -274z"/>
<path d="M3543 8479 c-91 -17 -172 -77 -219 -161 -25 -46 -29 -63 -29 -133 0
-68 5 -88 28 -133 102 -195 301 -247 477 -125 61 43 116 116 126 169 8 41 7
42 -33 50 -28 6 -31 4 -37 -29 -9 -51 -83 -129 -148 -157 -74 -32 -161 -26
-220 16 -24 16 -43 37 -43 47 0 10 74 64 204 149 113 73 206 138 208 144 2 6
-17 34 -42 62 -73 82 -176 120 -272 101z m132 -88 c22 -10 51 -30 64 -44 l24
-26 -177 -116 c-97 -63 -180 -115 -185 -115 -17 0 -33 72 -29 126 12 141 175
234 303 175z"/>
<path d="M3066 8171 l-27 -28 99 -264 c54 -145 98 -265 97 -267 -2 -2 -121 44
-266 103 l-264 105 -29 -30 c-17 -16 -28 -31 -25 -33 2 -2 143 -58 313 -126
l310 -122 29 30 30 29 -118 316 c-64 174 -118 316 -119 316 -1 0 -15 -13 -30
-29z"/>
<path d="M7759 8121 c-194 -62 -326 -274 -289 -464 19 -98 56 -164 134 -243
78 -77 158 -123 231 -131 l44 -5 108 103 c59 57 109 106 111 109 1 3 -10 18
-26 33 l-27 26 -103 -95 c-112 -105 -105 -103 -192 -59 -57 29 -145 121 -173
182 -32 71 -32 220 1 282 38 71 106 135 175 167 136 62 290 26 397 -93 49 -56
90 -140 90 -188 0 -43 10 -55 47 -55 l35 0 -4 58 c-8 113 -97 251 -208 322
-105 67 -239 87 -351 51z"/>
<path d="M2578 7557 c-128 -37 -220 -157 -221 -291 -1 -116 76 -230 192 -284
78 -37 184 -38 256 -3 64 32 126 95 161 163 23 43 28 67 28 128 l1 75 -37 3
-36 3 5 -39 c18 -136 -113 -284 -248 -281 -47 1 -105 24 -101 40 2 7 64 102
138 211 75 110 133 205 131 213 -9 22 -111 64 -168 70 -31 3 -74 -1 -101 -8z
m148 -82 l35 -14 -122 -181 -121 -181 -25 23 c-103 94 -71 283 59 347 51 25
123 28 174 6z"/>
<path d="M8245 7306 c-197 -128 -360 -236 -362 -242 -2 -5 7 -21 20 -37 l22
-27 265 171 c146 94 309 200 363 235 l98 64 -16 29 c-8 16 -18 32 -23 35 -4 2
-169 -100 -367 -228z"/>
<path d="M8330 7054 c-70 -19 -129 -54 -170 -100 -131 -149 -78 -396 104 -492
43 -23 63 -27 131 -26 95 0 167 30 235 95 61 59 85 118 85 209 0 61 -5 86 -29
137 -66 143 -213 216 -356 177z m212 -109 c82 -59 122 -188 85 -278 -37 -86
-135 -149 -237 -150 -220 -2 -311 274 -135 408 53 41 102 56 177 52 56 -2 74
-8 110 -32z"/>
<path d="M2075 6973 c-99 -36 -185 -114 -234 -211 -24 -47 -141 -362 -141
-379 0 -13 761 -287 770 -276 3 4 36 89 71 188 l64 180 0 115 c0 107 -2 119
-29 172 -41 81 -107 145 -194 186 -64 30 -86 35 -165 39 -71 3 -103 0 -142
-14z m187 -74 c111 -24 206 -97 250 -194 17 -39 22 -67 21 -130 0 -69 -7 -98
-46 -205 -59 -163 -58 -160 -69 -160 -15 0 -601 212 -612 221 -9 8 59 210 97
284 47 95 119 155 216 181 59 16 78 16 143 3z"/>
<path d="M8685 6338 c-225 -44 -411 -81 -412 -82 -1 -1 0 -19 4 -40 l6 -37 41
6 c23 4 50 9 61 12 19 5 19 5 -1 -18 -46 -52 -59 -90 -58 -179 0 -100 22 -158
81 -217 120 -120 318 -119 452 3 88 79 113 233 58 347 -28 56 -97 127 -125
127 -41 0 12 14 167 44 95 19 174 36 176 38 3 2 2 21 -2 41 -4 26 -11 37 -22
36 -9 -1 -200 -37 -426 -81z m83 -135 c126 -77 137 -286 21 -372 -110 -81
-286 -62 -352 38 -82 123 -47 274 78 339 79 41 182 39 253 -5z"/>
<path d="M1883 5672 l-343 -2 0 -40 0 -40 181 0 182 0 -40 -43 c-57 -62 -77
-120 -71 -210 8 -120 65 -209 167 -259 38 -19 62 -23 142 -23 86 0 101 3 154
30 105 54 161 153 158 283 -1 73 -37 156 -84 196 -35 30 -37 38 -6 36 12 -1
37 -2 55 -1 32 1 33 2 30 39 l-3 37 -90 0 c-49 0 -244 -1 -432 -3z m354 -118
c116 -72 139 -249 45 -347 -93 -98 -265 -99 -358 -2 -85 88 -85 223 -1 312 55
57 102 74 194 70 59 -3 82 -10 120 -33z"/>
<path d="M8611 5600 c-89 -19 -173 -89 -215 -179 -30 -68 -29 -208 2 -276 13
-27 32 -60 44 -72 l20 -22 28 21 28 21 -28 39 c-62 85 -60 217 3 301 35 46
105 87 149 87 28 0 29 -1 24 -47 -3 -27 -8 -141 -11 -254 -5 -175 -4 -207 9
-212 25 -10 131 10 174 32 56 29 110 85 136 140 30 67 29 189 -2 252 -62 126
-216 198 -361 169z m224 -119 c156 -106 105 -349 -82 -392 l-33 -7 0 128 c0
70 3 168 7 219 l6 92 31 -6 c17 -4 49 -19 71 -34z"/>
<path d="M2213 4926 c-226 -58 -270 -80 -313 -156 -66 -117 3 -324 124 -375
l29 -12 -52 -13 c-46 -11 -51 -15 -51 -38 0 -57 -2 -57 311 19 162 39 295 73
297 74 2 2 0 19 -3 39 -5 25 -13 36 -25 36 -9 0 -90 -18 -179 -40 -178 -44
-214 -47 -269 -25 -72 31 -118 97 -129 185 -7 62 23 130 72 160 18 11 118 41
222 67 103 25 190 47 191 49 7 5 -9 84 -16 83 -4 0 -98 -24 -209 -53z"/>
<path d="M8895 4891 c-2 -4 -7 -27 -11 -50 -4 -23 -10 -43 -13 -45 -4 -3 -90
13 -191 34 -102 22 -206 39 -231 40 -92 0 -159 -80 -159 -190 0 -67 15 -91 51
-84 24 5 25 8 21 58 -5 68 15 110 61 125 28 10 64 5 227 -29 106 -22 195 -42
198 -45 3 -2 -3 -43 -13 -90 -10 -47 -16 -87 -13 -90 2 -3 18 -7 34 -11 l30
-6 18 92 19 92 31 -6 c102 -21 103 -21 110 14 3 18 6 36 6 40 0 4 -29 14 -64
21 l-65 12 7 31 c13 62 9 79 -20 87 -16 4 -30 4 -33 0z"/>
<path d="M8226 4468 c-7 -18 -11 -36 -7 -40 3 -4 71 -30 151 -58 174 -63 205
-78 247 -122 43 -46 59 -103 44 -162 -15 -62 -15 -61 24 -73 33 -11 34 -10 46
24 17 52 7 147 -19 183 -12 16 -22 32 -22 34 0 3 23 -3 51 -15 29 -11 53 -18
54 -17 5 7 25 71 23 73 -6 5 -562 205 -570 205 -4 0 -14 -15 -22 -32z"/>
<path d="M2510 4240 c-13 -31 -7 -50 14 -50 22 0 106 -80 127 -122 26 -51 35
-131 20 -185 -11 -40 -76 -123 -97 -123 -5 0 -60 101 -122 225 -64 130 -118
225 -126 225 -25 0 -113 -73 -144 -120 -82 -120 -61 -272 53 -379 118 -112
301 -105 428 17 117 112 123 283 17 433 -27 36 -75 74 -122 93 -36 15 -36 15
-48 -14z m-4 -518 c-13 -12 -116 -14 -151 -2 -153 50 -197 256 -78 367 l37 35
98 -197 c55 -108 97 -200 94 -203z"/>
<path d="M8150 4061 c-147 -47 -250 -215 -221 -359 22 -108 103 -203 210 -243
72 -27 175 -23 239 10 97 49 171 162 179 273 10 122 -63 240 -182 298 -53 26
-175 37 -225 21z m162 -87 c98 -33 168 -125 168 -221 0 -138 -113 -244 -246
-230 -98 10 -201 92 -224 179 -29 107 35 235 140 277 38 15 111 13 162 -5z"/>
<path d="M2832 3745 c-16 -34 -16 -32 18 -50 37 -19 70 -70 70 -108 0 -38 -40
-77 -206 -200 l-142 -105 -48 66 c-27 36 -52 70 -55 75 -6 9 -59 -19 -59 -32
0 -3 23 -37 50 -75 28 -38 50 -72 50 -76 0 -3 -21 -22 -47 -40 -27 -18 -50
-35 -52 -36 -5 -4 39 -64 48 -64 5 0 30 16 56 37 l48 36 20 -24 c10 -13 26
-33 33 -44 11 -15 18 -17 31 -9 36 22 37 40 8 78 -22 29 -25 40 -16 49 6 7 80
64 164 127 83 63 162 130 174 149 45 66 18 172 -57 232 -53 41 -74 44 -88 14z"/>
<path d="M7702 3489 c-45 -13 -106 -77 -127 -133 -19 -50 -16 -60 26 -70 24
-5 27 -3 33 28 9 46 66 96 109 96 19 0 46 -11 68 -28 76 -58 279 -236 279
-245 0 -5 -25 -38 -56 -73 -55 -63 -56 -65 -39 -84 10 -11 24 -20 30 -20 7 0
37 29 66 64 30 36 57 65 60 65 3 1 27 -18 53 -40 l47 -42 24 23 c14 13 25 29
25 36 0 6 -21 30 -47 51 l-46 40 33 41 33 42 -23 25 -24 26 -37 -43 c-33 -39
-38 -41 -55 -28 -10 8 -77 65 -149 126 -167 143 -209 164 -283 143z"/>
<path d="M3020 3251 c-74 -81 -144 -168 -157 -192 -47 -92 -22 -200 64 -279
59 -55 120 -81 189 -81 60 0 60 0 10 -56 -19 -23 -19 -23 4 -48 13 -14 27 -25
30 -25 4 0 101 102 215 227 l209 226 -30 23 c-16 13 -32 24 -35 24 -4 0 -58
-56 -120 -125 -63 -69 -131 -138 -152 -152 -53 -37 -138 -43 -193 -15 -82 42
-142 134 -128 196 11 53 33 85 127 189 51 55 110 121 131 145 l40 45 -28 23
c-15 13 -30 24 -34 24 -4 0 -68 -67 -142 -149z"/>
<path d="M7340 3151 c-45 -30 -82 -77 -94 -117 -5 -16 0 -24 21 -33 24 -11 29
-10 38 5 23 42 83 94 108 94 48 0 75 -22 206 -171 l131 -148 -69 -62 c-69 -61
-70 -62 -53 -85 9 -13 22 -23 27 -24 6 0 38 25 72 55 33 30 65 55 69 55 4 0
27 -21 50 -47 l42 -48 31 29 31 29 -47 50 -46 50 41 34 42 35 -21 29 -21 29
-41 -35 c-22 -19 -43 -35 -46 -34 -3 0 -64 66 -135 147 -70 81 -140 156 -154
167 -16 12 -47 20 -82 23 -48 3 -61 0 -100 -27z"/>
<path d="M7034 2901 c-97 -25 -189 -95 -228 -173 -32 -64 -33 -84 -3 -92 38
-10 45 -7 52 25 10 44 81 118 140 145 70 33 138 32 205 -3 29 -16 59 -37 67
-49 13 -20 5 -26 -206 -155 -246 -150 -234 -134 -158 -216 119 -129 291 -131
430 -4 83 76 107 222 55 333 -36 76 -97 141 -160 168 -56 24 -145 34 -194 21z
m306 -324 c1 -129 -103 -224 -237 -215 -50 3 -71 10 -105 35 -24 17 -44 38
-46 46 -2 10 57 51 180 126 l183 112 12 -28 c7 -15 12 -50 13 -76z"/>
<path d="M3650 2843 c-56 -20 -138 -101 -170 -168 -20 -41 -25 -66 -25 -135 0
-76 3 -91 29 -138 100 -180 339 -228 484 -97 73 66 105 132 110 232 4 74 2 88
-22 137 -30 61 -93 124 -158 157 -57 30 -183 36 -248 12z m186 -68 c180 -54
221 -276 75 -408 -51 -46 -81 -58 -146 -59 -91 -1 -178 54 -216 137 -57 124
29 292 171 336 38 11 62 10 116 -6z"/>
<path d="M6550 2659 c-13 -6 -26 -12 -28 -14 -2 -2 26 -80 62 -174 50 -130 66
-182 66 -221 0 -86 -34 -139 -112 -177 l-36 -18 15 -38 15 -37 49 27 c54 29
94 74 113 129 l12 37 19 -49 c10 -27 19 -50 20 -52 1 -1 18 5 39 13 36 15 36
16 23 48 -8 17 -58 146 -112 285 -54 138 -104 252 -109 251 -6 0 -22 -5 -36
-10z"/>
<path d="M4429 2553 c-6 -16 -31 -86 -56 -158 -56 -163 -82 -208 -137 -240
-46 -27 -122 -34 -169 -16 -22 9 -26 7 -31 -14 -3 -13 -9 -30 -12 -38 -4 -12
5 -19 38 -27 55 -15 116 -8 167 19 23 11 41 19 41 17 0 -2 -7 -23 -15 -47 -16
-46 -15 -49 28 -67 25 -11 28 -10 36 11 38 100 191 543 191 553 0 6 -14 17
-31 23 -41 14 -38 15 -50 -16z"/>
<path d="M5048 2274 c-15 -91 -29 -168 -32 -171 -3 -3 -96 9 -207 26 -217 34
-222 34 -217 -18 3 -24 8 -26 206 -57 112 -18 205 -34 206 -36 3 -3 -44 -311
-48 -315 0 0 -95 14 -211 33 -271 43 -265 43 -265 -1 0 -19 3 -35 8 -35 4 0
127 -20 274 -43 l267 -43 5 25 c12 57 126 785 123 786 -1 1 -20 5 -43 8 l-40
7 -26 -166z"/>
</g>
</svg>
